<?xml version="1.0" encoding="utf-8"?><!-- Uploaded to: SVG Repo, www.svgrepo.com, Generator: SVG Repo Mixer Tools -->
<svg fill="#000000" width="800px" height="800px" viewBox="0 0 24 24" id="lock-alt" data-name="Flat Color" xmlns="http://www.w3.org/2000/svg" class="icon flat-color"><path id="secondary" d="M17,11H7a1,1,0,0,1-1-1V8A6,6,0,0,1,18,8v2A1,1,0,0,1,17,11ZM8,9h8V8A4,4,0,0,0,8,8Z" style="fill: rgb(44, 169, 188);"></path><path id="primary" d="M18,9H6a2,2,0,0,0-2,2v3a8,8,0,0,0,8,8h.24A8.21,8.21,0,0,0,20,13.71V11A2,2,0,0,0,18,9Z" style="fill: rgb(0, 0, 0);"></path><path id="secondary-2" data-name="secondary" d="M13.5,15A1.5,1.5,0,1,0,11,16.11V17a1,1,0,0,0,2,0v-.89A1.5,1.5,0,0,0,13.5,15Z" style="fill: rgb(44, 169, 188);"></path></svg>